<svg xmlns="http://www.w3.org/2000/svg" viewBox="0 0 879.95599 1063.9453" height="1063.95" width="879.96"><defs><clipPath id="0"><path d="m0 797.96h659.97v-797.96h-659.97v797.96"/></clipPath></defs><g transform="matrix(1.33333 0 0-1.33333 0 1063.95)"><g transform="matrix(1.34376 0 0 1.34376-126.64-139.81)" clip-path="url(#0)"><path d="m0 0c11.295 2.045 23.501 2.488 34.15-2.432 4.13-1.907 10.422-5.964 8.225-11.365-1.422-3.493-6-4.5-10.125-3.875-2.596.394-5.342 3.693-4.5 8.375 1.646 9.16 9.711 13.551 18.5 12.25 7.737-1.146 12.76-5.884 15.289-12.865 3.412-9.422 4.1-20.69 1.461-30.385-4.469-16.424-16.75-20.25-31.75-20.25-11.997 0-20.09 4.355-22.503 10.848-1.858 4.985-1.204 9.261 3.503 12.402 4.84 3.228 11.668 3.183 17.25 3.5 6.994.399 15.254.845 22.25 1.25 11.496.666 23.48 3.425 32.17 11.828 4.476 4.329 6.65 10.403 6.666 16.475.017 6.697-6.05 13.328-12.17 13.369-1.916.013-3.283-1.049-3.814-2.047-1.622-3.057-.07-8.723.148-12.12.58-9.04 1.73-18.04 2.084-27.09.99-25.476 1.601-50.972 2.25-76.46.451-17.719.33-35.32.154-53.03-.42-42.641.203-85.31.34-127.94.045-13.79.072-27.58.088-41.37.004-3.721.006-7.441.008-11.162.002-2.453-.994-7.649.043-9.818 1.937-4.048 2.564-8.727 1.986-13.147-.426-3.262-2.248-8.464-6.311-7.231-2.13.647-4.03 2.455-5.148 4.317-.682 1.133.407 4.853 1.303 3.563.254-.366.855-.274 1.228-.175 6.311 1.692 7.811 11.12 8.418 16.252.14 1.183.153 2.365.19 3.554.012.399-1.912.113-1.932-.518-.16-5.165-1.047-10.274-3.327-14.944-.405-.83-.603-.846-1.493-1.725-.322-.304-.645-.61-.967-.916-1.453-.937-1.555-1.192-.303-.761-.15.418-.502.572-.936.551-1.349-.061-3.442-1.057-4.127-2.227-1.63-2.779 1.695-5.586 3.765-6.938 6.806-4.44 10.948 2.86 11.734 8.873.496 3.797-.459 7.837-1.865 11.348-.795 1.981-.324 4.501-.325 6.615-.002 4.395-.004 8.789-.007 13.184-.043 47.805-.374 95.61-.453 143.41-.03 18.881.638 37.782.382 56.658-.569 42.16-1.457 84.46-4.074 126.55-.148 2.384-.307 4.768-.467 7.151-.103 1.528.037 5.506 2.873 4.751 4.03-1.072 6.564-3.329 8.344-6.973 2.797-5.722-1.717-15.36-5.562-19.598-9.596-10.569-27.865-10.04-40.913-10.449-9.976-.311-23.04.809-31.782-5.02-9.703-6.471-1.598-20.538 6.1-24.661 11.05-5.922 26.02-3.516 36.451 2.556 16.11 9.376 15.872 27.835 12.2 44.21-2.791 12.445-13.156 22.57-26.59 18.08-10.369-3.467-19.609-25.08-3.109-24.832 7.099.108 13.588 6.307 7.911 13.534-9.137 11.631-30.02 9.999-42.588 7.724-.816-.149-1.675-1.08-.326-.836" fill="#3b393a" transform="translate(282.17 627.1)"/><path d="m0 0c-.496 5.205-2.304 9.889-4.854 14.409-.234.413-.525.987-.872 1.552-.022 3.166-.029 6.332.024 9.5.075 4.531.01 9.805-4.526 12.209-1.302.691-2.763 1.049-4.237 1.256 0 0-1.137.316-2.585-.108-.611-.296-1.187-.699-1.712-1.232-1.754-1.783-1.963-4.765-.856-6.932 1.264-2.478 3.255-3.614 5.494-5.109 1.056-.704 1.967-1.545 2.365-2.779.537-1.662-.269-3.672-.976-5.153-1.27-2.658-3.126-4.754-5.147-6.941-.312-.338-.623-.688-.729-.808-.991-1.12-1.923-2.405-2.523-3.606-.975-1.951-1.719-4.02-2.409-6.084-1.673-5-2.918-10.197-3.667-15.42-.294-2.043-.506-4.121-.416-6.188.044-1.019.117-2.411.915-3.166 2.448-2.308 4.579 5.405 4.905 6.501.317 1.063.612 2.128.896 3.192-.13-1.905-.167-3.88.186-5.755-.106-1.521-.241-3.036-.437-4.539-.493-3.801-.943-7.608-1.271-11.428-.399-4.662-.825-9.527-.148-14.184.213-1.466 1.43-5.152 3.503-3.02 1.068 1.098 1.23 3.212 1.464 4.638.449 2.755.671 5.549.945 8.326.283 2.854.56 5.726 1.144 8.539.199.957.455 1.908.834 2.811.203.484.584 1.537 1.342 2.183.271.232.757.361 1.118.447.698.169.783.037 1.433-.103.874-.191 1.079-1.373 1.189-2.074.263-1.692.285-3.44.269-5.148-.023-2.724.144-5.318-.155-8.02-.345-3.105-.469-6.576-.156-9.693.289-2.888 2.556-5.625 3.908-4.273 2.901 2.9 2.583 12.01 2.11 18.432-.287 3.892-.209 7.814-.928 11.66-.459 2.454-1.113 4.889-1.56 7.346.281 1.817.339 3.685.365 5.486.01.684.016 1.371.024 2.055.007-.041.016-.083.024-.124.351-1.612.941-4.746 2.703-5.504 3.564-1.537 3.17 15.12 3 16.852" fill="#373535" transform="translate(367.69 237.72)"/><g stroke="#3b393a" stroke-miterlimit="10"><path d="m0 0c-.496 5.205-2.304 9.889-4.854 14.409-.234.413-.525.987-.872 1.552-.022 3.166-.029 6.332.024 9.5.075 4.531.01 9.805-4.526 12.209-1.302.691-2.763 1.049-4.237 1.256 0 0-1.137.316-2.585-.108-.611-.296-1.187-.699-1.712-1.232-1.754-1.783-1.963-4.765-.856-6.932 1.264-2.478 3.255-3.614 5.494-5.109 1.056-.704 1.967-1.545 2.365-2.779.537-1.662-.269-3.672-.976-5.153-1.27-2.658-3.126-4.754-5.147-6.941-.312-.338-.623-.688-.729-.808-.991-1.12-1.923-2.405-2.523-3.606-.975-1.951-1.719-4.02-2.409-6.084-1.673-5-2.918-10.197-3.667-15.42-.294-2.043-.506-4.121-.416-6.188.044-1.019.117-2.411.915-3.166 2.448-2.308 4.579 5.405 4.905 6.501.317 1.063.612 2.128.896 3.192-.13-1.905-.167-3.88.186-5.755-.106-1.521-.241-3.036-.437-4.539-.493-3.801-.943-7.608-1.271-11.428-.399-4.662-.825-9.527-.148-14.184.213-1.466 1.43-5.152 3.503-3.02 1.068 1.098 1.23 3.212 1.464 4.638.449 2.755.671 5.549.945 8.326.283 2.854.56 5.726 1.144 8.539.199.957.455 1.908.834 2.811.203.484.584 1.537 1.342 2.183.271.232.757.361 1.118.447.698.169.783.037 1.433-.103.874-.191 1.079-1.373 1.189-2.074.263-1.692.285-3.44.269-5.148-.023-2.724.144-5.318-.155-8.02-.345-3.105-.469-6.576-.156-9.693.289-2.888 2.556-5.625 3.908-4.273 2.901 2.9 2.583 12.01 2.11 18.432-.287 3.892-.209 7.814-.928 11.66-.459 2.454-1.113 4.889-1.56 7.346.281 1.817.339 3.685.365 5.486.01.684.016 1.371.024 2.055.007-.041.016-.083.024-.124.351-1.612.941-4.746 2.703-5.504 3.564-1.537 3.17 15.12 3 16.852" fill="none" transform="translate(367.69 237.72)"/><path d="m0 0c.075 4.531.01 9.805-4.525 12.209-1.303.691-2.764 1.049-4.238 1.256 0 0-1.136.316-2.585-.108-.611-.295-1.187-.699-1.712-1.232-1.753-1.783-1.962-4.765-.856-6.932 1.264-2.478 3.255-3.614 5.494-5.109 1.056-.704 1.967-1.545 2.365-2.779" fill="#373535" transform="translate(361.98 263.43)"/></g></g></g></svg>