<svg xmlns="http://www.w3.org/2000/svg" viewBox="0 0 744.09 1052.36"><path fill="#ffd42a" d="m16.668 52.816h714.68v702.06h-714.68z"/><g fill="none" stroke="#ef0000" stroke-width="27.2"><path d="m213.14 256.36c3.747-4.952 8.862-8.857 14.626-11.167 5.764-2.31 12.16-3.02 18.29-2.024 6.129.994 11.975 3.686 16.713 7.698 4.739 4.01 8.358 9.334 10.349 15.215 2.057 6.076 2.37 12.699 1.146 18.996-1.224 6.297-3.962 12.267-7.729 17.459-7.535 10.385-18.993 17.465-31.17 21.503-22.513 7.465-48.17 4.824-68.69-7.07"/><path d="m256.58 312.93c-7.697 5.59-15.04 11.667-21.971 18.18-13.974 13.14-26.645 28.821-30.902 47.524-2.129 9.351-2.025 19.304 1.041 28.392 3.065 9.09 9.201 17.24 17.487 22.07 6.993 4.075 15.392 5.684 23.395 4.48 8-1.204 15.558-5.211 21.04-11.163 5.485-5.952 8.863-13.807 9.411-21.883.547-8.08-1.74-16.315-6.372-22.952 2.826 10.393 9.896 19.564 19.227 24.941 9.332 5.377 20.812 6.895 31.22 4.129 10.409-2.767 19.62-9.785 25.05-19.09 5.43-9.301 7.01-20.773 4.305-31.2-3.457-13.305-13.319-24.18-17.17-37.38-2.779-9.515-2.205-19.99 1.69-29.11 3.896-9.115 11.1-16.791 19.998-21.16 8.897-4.371 19.415-5.381 28.953-2.683 9.538 2.698 17.996 9.1 23.1 17.595 5.891 9.811 7.128 22.286 3.279 33.06-3.849 10.777-12.709 19.646-23.482 23.505"/><path d="m335.37 403.84c9.573 16.316 14.848 35.13 15.15 54.04.427 26.501-9.09 53.05-26.26 73.24-26.08-23.558-59.19-39.23-93.94-44.45-33.36-5.01-68.1-.402-98.99 13.13"/><path d="m474.29 492.83c.043 4.886-1.363 9.776-3.995 13.893-2.631 4.117-6.479 7.446-10.931 9.459-4.452 2.01-9.493 2.702-14.322 1.958-4.829-.744-9.429-2.918-13.07-6.178-5.05-4.522-8.151-11.08-8.73-17.833-.58-6.753 1.308-13.646 5-19.328 3.696-5.682 9.148-10.154 15.326-12.944 6.178-2.789 13.06-3.921 19.825-3.56 14.405.769 27.525 7.999 40.649 13.986 6.562 2.994 13.295 5.726 20.351 7.217 7.06 1.491 14.492 1.7 21.418-.315 5.792-1.685 11.1-4.901 15.446-9.09 4.343-4.186 7.73-9.325 10.08-14.879 4.709-11.11 5.24-23.656 3.295-35.562-4.779-29.26-24.857-55.48-51.669-68.13-26.813-12.652-59.59-11.551-85.71 2.475-19.04 10.223-34.476 26.996-43.09 46.814"/></g></svg>